<?xml version="1.0" encoding="utf-8"?>
<!-- Generator: Adobe Illustrator 19.0.0, SVG Export Plug-In . SVG Version: 6.00 Build 0)  -->
<svg version="1.1" id="Layer_1" xmlns="http://www.w3.org/2000/svg" xmlns:xlink="http://www.w3.org/1999/xlink" x="0px" y="0px"
	 viewBox="0 0 500 500" style="enable-background:new 0 0 500 500;" xml:space="preserve">
<style type="text/css">
	.st0{fill:#002D62;}
</style>
<g id="g3359">
	<g id="g3361">
	</g>
</g>
<g id="XMLID_24_">
	<path id="XMLID_33_" class="st0" d="M65,292.2c84.9,0,84.9,0,84.9,0c0-84.3,0-84.3,0-84.3c-84.9,0-84.9,0-84.9,0V292.2z
		 M119.4,214.3c15,4.9,25.9,19,25.9,35.7c0,16.4-10.6,30.5-25.9,35.7V214.3z M107.5,212.4c2.7,0,5.6,0.3,8,0.8
		c0,19.1-18.6,34.8-37.8,34.8c-8,0-8,0-8,0C70.9,228.4,87.2,212.4,107.5,212.4 M77.6,252c19.2,0,37.8,15.7,37.8,34.8
		c-2.4,0.5-5.4,0.9-8,0.9c-20.2,0-37.1-16.1-37.9-35.7H77.6z"/>
	<path id="XMLID_34_" class="st0" d="M178.4,257.4c0-5.3,0-5.3,0-5.3c17.7,0,17.7,0,17.7,0c0-6.8,0-6.8,0-6.8c-17.7,0-17.7,0-17.7,0
		c0-9.9,0-9.9,0-9.9c18.8,0,18.8,0,18.8,0c0-6.8,0-6.8,0-6.8c-26,0-26,0-26,0c0,14.5,0,14.5,0,14.5c0,13.9,0,13.9,0,13.9
		c0,7.2,3.1,12.1,10.3,13.1c0.2,0,0.3,0.1,0.4,0.1c0.1,0,0.1,0,0.1,0c0.7,0.1,1.5,0.1,2.3,0.1c13.4,0,13.4,0,13.4,0
		c0-6.8,0-6.8,0-6.8c-13.3,0-13.3,0-13.3,0C182.1,263.7,178.4,262.5,178.4,257.4"/>
	<polygon id="XMLID_35_" class="st0" points="202.8,248.4 202.8,270.4 210.1,270.4 210.1,248.3 210.1,228.7 202.8,228.7 	"/>
	<path id="XMLID_38_" class="st0" d="M230.8,239.3c-9.1,0-16,6.3-16,16c0,0.2,0,0.2,0,0.2c0,9.5,6.6,15.6,16.2,15.6
		c4.6,0,8.9-1.3,12.8-5.4c-4.4-4.2-4.4-4.2-4.4-4.2c-2.3,2.3-4.5,3.5-8.3,3.5c-5.4,0-9-3.1-9.2-7.9c23.8,0,23.8,0,23.8,0
		c0.1-1.2,0.1-2.5,0.1-2.5C245.9,246.1,239.9,239.3,230.8,239.3 M222.2,252c0.3-3.7,4.1-6.6,8.6-6.6c4.3,0,7.7,3,7.7,6.6H222.2z"/>
	<path id="XMLID_39_" class="st0" d="M266.2,245.7c3.3,0,5.7,1.2,7.7,3.3c4.5-4.6,4.5-4.6,4.5-4.6c-3.5-3.7-7.7-5.2-12.2-5.2
		c-9.2,0-16.6,6.8-16.6,16.1c0,9.3,7.4,16.1,16.6,16.1c4.5,0,8.7-1.5,12.2-5.2c-4.5-4.6-4.5-4.6-4.5-4.6c-2.1,2.1-4.5,3.3-7.7,3.3
		c-5.3,0-9.4-4-9.4-9.5C256.8,249.8,260.9,245.7,266.2,245.7"/>
	<path id="XMLID_41_" class="st0" d="M290.2,257.4L290.2,257.4c0-10.6,0-10.6,0-10.6c6.6,0,6.6,0,6.6,0c0-6.5,0-6.5,0-6.5
		c-6.6,0-6.6,0-6.6,0c0-11.5,0-11.5,0-11.5c-7.2,0-7.2,0-7.2,0c0,15,0,15,0,15c0,14.2,0,14.2,0,14.2l0,0c0.2,6.8,3.3,11.4,10.3,12.4
		c0.2,0,0.3,0.1,0.4,0.1c0.1,0,0.1,0,0.1,0c0.7,0.1,1.5,0.1,2.3,0.1c0.8,0,0.8,0,0.8,0c0-6.8,0-6.8,0-6.8c-0.7,0-0.7,0-0.7,0
		C293.9,263.7,290.2,262.5,290.2,257.4"/>
	<path id="XMLID_42_" class="st0" d="M310.1,244.7c0-4.5,0-4.5,0-4.5c-7.2,0-7.2,0-7.2,0c0,14.8,0,14.8,0,14.8c0,15.4,0,15.4,0,15.4
		c7.2,0,7.2,0,7.2,0c0-15.9,0-15.9,0-15.9c0-5,3.2-8.1,8.2-8.1c1.2,0,2.2,0.1,3,0.3c0-6.9,0-6.9,0-6.9c-0.3-0.1-1.4-0.2-2.2-0.2
		C314.8,239.6,311.5,241.6,310.1,244.7"/>
	<path id="XMLID_48_" class="st0" d="M339,239.3c-9.2,0-16.6,6.9-16.6,16c0,9,7.3,16,16.6,16c9.2,0,16.6-7,16.6-16
		C355.6,246.3,348.1,239.3,339,239.3 M339,264.8c-5.4,0-9.4-4.1-9.4-9.5s4-9.5,9.4-9.5c5.3,0,9.4,4.1,9.4,9.5S344.3,264.8,339,264.8
		"/>
	<polygon id="XMLID_49_" class="st0" points="360,247.7 360,270.4 367.3,270.4 367.3,248 367.3,228.7 360,228.7 	"/>
	<path id="XMLID_50_" class="st0" d="M393.4,257.8c0,4.8-2.8,6.8-6.6,6.8c-3.8,0-6.6-2-6.6-6.8c0-17.6,0-17.6,0-17.6
		c-7.3,0-7.3,0-7.3,0c0,8.7,0,8.7,0,8.7c0,9.5,0,9.5,0,9.5c0,8.6,6.3,12.8,13.9,12.8c7.6,0,14-4.2,14-12.9c0-9.3,0-9.3,0-9.3
		c0-8.7,0-8.7,0-8.7c-7.3,0-7.3,0-7.3,0V257.8z"/>
	<polygon id="XMLID_55_" class="st0" points="428,260.8 423.5,254.4 429.1,246.8 434,240.2 426.1,240.2 419.5,249.3 412.9,240.2 
		405,240.2 409.5,246.3 415.5,254.5 409.2,263.2 404,270.4 411.8,270.4 419.5,259.8 427.2,270.4 435,270.4 	"/>
</g>
</svg>
