<?xml version="1.0" standalone="no"?>
<!DOCTYPE svg PUBLIC "-//W3C//DTD SVG 20010904//EN"
 "http://www.w3.org/TR/2001/REC-SVG-20010904/DTD/svg10.dtd">
<svg version="1.0" xmlns="http://www.w3.org/2000/svg"
 width="800.000000pt" height="800.000000pt" viewBox="0 0 800.000000 800.000000"
 preserveAspectRatio="xMidYMid meet">

<g transform="translate(0.000000,800.000000) scale(0.100000,-0.100000)"
fill="#000000" stroke="none">
<path d="M2122 5828 c-8 -8 -12 -55 -12 -145 l0 -133 78 0 c659 -5 1221 -11
1237 -15 12 -2 30 -21 41 -42 37 -70 107 -197 157 -288 58 -104 137 -249 192
-350 21 -38 46 -83 55 -100 10 -16 31 -55 47 -85 17 -30 51 -94 77 -141 25
-48 53 -92 60 -98 9 -8 64 -11 167 -9 l154 3 3 685 c1 377 0 695 -3 708 -5 22
-8 22 -154 22 -127 0 -150 -2 -155 -16 -3 -9 -6 -182 -6 -385 0 -441 3 -433
-97 -249 -17 30 -41 75 -55 100 -32 57 -186 338 -225 410 -46 85 -57 104 -72
123 -13 16 -61 17 -746 17 -555 0 -734 -3 -743 -12z"/>
<path d="M4690 5802 c-19 -9 -45 -32 -57 -51 l-23 -34 0 -596 c0 -577 1 -597
20 -629 11 -18 34 -41 52 -52 32 -20 48 -20 625 -18 582 3 592 3 620 24 15 11
38 38 50 60 21 39 21 44 22 610 1 610 2 600 -48 657 -39 46 -50 47 -655 47
-517 -1 -574 -3 -606 -18z m365 -271 c37 -23 69 -41 72 -41 2 0 24 -13 48 -30
24 -16 46 -30 49 -30 3 0 46 -25 97 -55 50 -30 93 -55 94 -55 2 0 32 -17 66
-38 35 -22 84 -50 109 -64 176 -98 191 -113 147 -134 -12 -6 -74 -41 -137 -79
-124 -73 -141 -83 -240 -140 -215 -124 -355 -207 -364 -216 -35 -33 -36 -19
-36 462 0 401 2 470 14 466 8 -3 44 -24 81 -46z"/>
<path d="M2115 4860 c0 -423 0 -431 20 -436 11 -2 227 -3 480 -2 l460 3 0 145
0 145 -297 5 c-193 3 -301 9 -308 16 -7 7 -10 58 -8 145 l3 134 275 5 275 5 3
133 3 132 -453 0 -453 0 0 -430z"/>
<path d="M3292 4860 l3 -435 158 -3 157 -3 0 148 0 148 -55 100 c-30 54 -55
100 -55 101 0 1 -16 31 -36 66 -20 34 -61 110 -92 168 -30 58 -61 114 -69 125
-11 17 -13 -48 -11 -415z"/>
<path d="M5470 4251 c0 -54 -2 -61 -20 -61 -15 0 -20 -7 -20 -29 0 -20 6 -30
20 -34 19 -5 20 -14 20 -127 l0 -121 33 3 32 3 1 107 c2 123 5 138 34 138 31
0 24 54 -7 58 -19 3 -22 10 -25 60 -3 56 -3 57 -35 60 l-33 3 0 -60z"/>
<path d="M2550 4090 c0 -180 2 -210 15 -210 13 0 15 30 15 210 0 180 -2 210
-15 210 -13 0 -15 -30 -15 -210z"/>
<path d="M3598 4243 c-3 -55 -4 -58 -30 -61 -16 -2 -28 -7 -28 -12 0 -5 12
-10 28 -12 l27 -3 3 -137 c1 -78 7 -138 12 -138 5 0 11 60 12 138 l3 137 33 3
c17 2 32 7 32 12 0 5 -15 10 -32 12 -33 3 -33 4 -36 61 -2 31 -7 57 -12 57 -5
0 -10 -26 -12 -57z"/>
<path d="M2206 4174 c-37 -20 -75 -64 -76 -86 0 -9 -4 -20 -10 -23 -23 -14 -7
-79 33 -138 19 -27 92 -67 123 -67 27 0 106 43 121 67 23 35 7 41 -26 9 -78
-75 -201 -42 -218 57 l-6 36 139 3 139 3 -3 30 c-11 92 -133 154 -216 109z
m149 -45 c24 -21 35 -39 33 -53 -3 -20 -10 -21 -108 -24 -128 -3 -141 3 -112
50 26 42 54 56 109 57 34 1 50 -5 78 -30z"/>
<path d="M2784 4171 c-73 -44 -100 -126 -69 -206 18 -49 49 -75 108 -95 32
-10 44 -9 80 5 47 19 87 52 87 72 0 19 -9 16 -46 -17 -43 -37 -90 -46 -137
-26 -39 16 -77 67 -77 104 0 22 1 22 141 22 l142 0 -7 32 c-20 103 -138 160
-222 109z m136 -27 c15 -9 35 -29 44 -44 25 -43 6 -51 -115 -48 -97 3 -104 4
-107 24 -2 14 9 32 33 53 41 36 98 42 145 15z"/>
<path d="M3225 4176 c-46 -20 -81 -61 -95 -111 -23 -84 27 -164 123 -195 31
-10 45 -9 84 4 46 16 83 41 83 58 0 14 -20 9 -50 -14 -38 -27 -115 -30 -154
-5 -83 55 -84 176 -1 227 49 30 125 27 165 -6 32 -28 52 -25 34 4 -28 45 -128
65 -189 38z"/>
<path d="M3856 4169 c-26 -20 -29 -21 -38 -6 -22 40 -28 11 -28 -133 0 -127 2
-150 15 -150 12 0 15 18 15 106 0 131 13 160 79 174 14 3 25 10 25 15 2 19
-41 16 -68 -6z"/>
<path d="M4086 4167 c-54 -30 -80 -78 -80 -144 1 -67 36 -116 103 -145 40 -17
51 -18 86 -7 22 7 54 25 71 41 135 126 -21 346 -180 255z m145 -28 c92 -65 69
-209 -38 -238 -105 -29 -195 84 -147 184 33 71 124 97 185 54z"/>
<path d="M4420 4034 l0 -155 30 3 30 3 4 98 c4 86 7 102 27 123 26 28 70 32
90 8 9 -11 16 -54 19 -123 l5 -106 33 -3 32 -3 0 126 c0 127 0 127 -29 156
-24 23 -38 29 -73 29 -24 0 -54 -7 -67 -17 -22 -15 -25 -15 -36 0 -7 10 -24
17 -39 17 l-26 0 0 -156z"/>
<path d="M4869 4166 c-50 -34 -72 -85 -67 -151 5 -63 31 -102 88 -133 54 -28
89 -28 142 2 110 61 117 218 12 286 -44 30 -129 27 -175 -4z m146 -52 c76 -50
37 -184 -54 -184 -39 1 -58 12 -84 50 -58 84 52 191 138 134z"/>
<path d="M5220 4035 l0 -155 35 0 35 0 -2 109 c-2 108 6 141 36 141 18 0 33
14 40 38 7 19 4 22 -22 22 -16 0 -35 -7 -42 -15 -7 -8 -16 -15 -21 -15 -5 0
-9 7 -9 15 0 9 -9 15 -25 15 l-25 0 0 -155z"/>
<path d="M5735 4171 c-51 -30 -69 -68 -69 -142 0 -50 5 -72 21 -95 27 -37 95
-74 139 -74 32 0 95 28 123 55 12 12 10 16 -13 26 -22 10 -32 10 -48 0 -34
-21 -106 -16 -134 10 -13 12 -24 31 -24 41 0 16 11 18 125 18 l125 0 0 38 c0
46 -30 96 -72 122 -44 26 -131 27 -173 1z m158 -60 c37 -36 16 -51 -72 -51
-46 0 -83 5 -86 11 -8 12 22 48 50 60 30 13 86 2 108 -20z"/>
<path d="M4130 3459 c-25 -4 -82 -8 -127 -8 l-83 -1 0 -586 c0 -553 -1 -585
-17 -580 -10 2 -49 14 -88 25 -182 53 -380 90 -570 106 l-70 6 110 -62 c276
-154 502 -349 679 -589 43 -58 81 -109 85 -113 4 -4 44 41 88 100 212 285 412
461 688 605 60 32 101 58 89 58 -120 1 -386 -46 -586 -104 l-118 -34 0 594 c0
560 -1 594 -17 593 -10 -1 -38 -5 -63 -10z"/>
</g>
</svg>
